<svg xmlns="http://www.w3.org/2000/svg" fill="none" stroke="currentColor" stroke-linecap="round" stroke-linejoin="round" stroke-width="2" class="feather feather-book" viewBox="0 0 24 24"><path fill="#000" stroke="none" d="M6.5 1A3.515 3.515 0 003 4.5v15a1 1 0 00.023.22C3.141 21.54 4.654 23 6.5 23H20a1 1 0 001-1v-4.832a1 1 0 000-.326V2a1 1 0 00-1-1H6.5zm0 2H19v13H6.5a3.44 3.44 0 00-1.5.355V4.5C5 3.66 5.66 3 6.5 3zm0 15H19v3H6.5c-.84 0-1.5-.66-1.5-1.5S5.66 18 6.5 18z" color="#000" font-family="sans-serif" font-weight="400" overflow="visible" style="line-height:normal;font-variant-ligatures:normal;font-variant-position:normal;font-variant-caps:normal;font-variant-numeric:normal;font-variant-alternates:normal;font-feature-settings:normal;text-indent:0;text-align:start;text-decoration-line:none;text-decoration-style:solid;text-decoration-color:#000;text-transform:none;text-orientation:mixed;white-space:normal;shape-padding:0;isolation:auto;mix-blend-mode:normal;solid-color:#000;solid-opacity:1"/></svg>
