<svg xmlns="http://www.w3.org/2000/svg" fill="none" stroke="currentColor" stroke-linecap="round" stroke-linejoin="round" stroke-width="2" class="feather feather-box" viewBox="0 0 24 24"><path fill="#000" stroke="none" d="M12 1.002a3 3 0 00-1.496.4l-7 4a1 1 0 00-.004.002c-.351.203-.65.472-.889.785a1 1 0 00-.336.569A2.99 2.99 0 002 7.998 1 1 0 002 8v8a1 1 0 000 .002 3.002 3.002 0 001.5 2.594 1 1 0 00.004.002l7 4c.305.175.635.288.973.347a1 1 0 001.043.002c.34-.06.672-.174.98-.351l6.996-3.998a1 1 0 00.004-.002 3.002 3.002 0 001.5-2.594A1 1 0 0022 16V8a1 1 0 000-.002c0-.462-.112-.907-.309-1.309a1 1 0 00-.267-.449 2.991 2.991 0 00-.924-.836 1 1 0 00-.004-.002L13.5 1.404a3 3 0 00-1.5-.402zm0 2c.172 0 .345.045.5.135a1 1 0 00.004.002l6.455 3.69L12 10.854 5.041 6.828l6.455-3.69a1 1 0 00.004-.001.999.999 0 01.5-.135zM4 8.537l7 4.049v7.992l-6.5-3.715A.996.996 0 014 16V8.537zm16 0v7.461c0 .359-.19.686-.5.865L13 20.578v-7.992l7-4.049z" color="#000" font-family="sans-serif" font-weight="400" overflow="visible" style="line-height:normal;font-variant-ligatures:normal;font-variant-position:normal;font-variant-caps:normal;font-variant-numeric:normal;font-variant-alternates:normal;font-feature-settings:normal;text-indent:0;text-align:start;text-decoration-line:none;text-decoration-style:solid;text-decoration-color:#000;text-transform:none;text-orientation:mixed;white-space:normal;shape-padding:0;isolation:auto;mix-blend-mode:normal;solid-color:#000;solid-opacity:1"/></svg>
