<svg xmlns="http://www.w3.org/2000/svg" fill="none" stroke="currentColor" stroke-linecap="round" stroke-linejoin="round" stroke-width="2" class="feather feather-clipboard" viewBox="0 0 24 24"><path fill="#000" stroke="none" d="M6 3C4.355 3 3 4.355 3 6v14c0 1.645 1.355 3 3 3h12c1.645 0 3-1.355 3-3V6c0-1.645-1.355-3-3-3h-2a1 1 0 100 2h2c.564 0 1 .436 1 1v14c0 .564-.436 1-1 1H6c-.564 0-1-.436-1-1V6c0-.564.436-1 1-1h2a1 1 0 100-2z" color="#000" font-family="sans-serif" font-weight="400" overflow="visible" style="line-height:normal;font-variant-ligatures:normal;font-variant-position:normal;font-variant-caps:normal;font-variant-numeric:normal;font-variant-alternates:normal;font-feature-settings:normal;text-indent:0;text-align:start;text-decoration-line:none;text-decoration-style:solid;text-decoration-color:#000;text-transform:none;text-orientation:mixed;white-space:normal;shape-padding:0;isolation:auto;mix-blend-mode:normal;solid-color:#000;solid-opacity:1"/><path fill="#000" stroke="none" d="M9 1c-1.09 0-2 .91-2 2v2c0 1.09.91 2 2 2h6c1.09 0 2-.91 2-2V3c0-1.09-.91-2-2-2zm0 2h6v2H9z" color="#000" font-family="sans-serif" font-weight="400" overflow="visible" style="line-height:normal;font-variant-ligatures:normal;font-variant-position:normal;font-variant-caps:normal;font-variant-numeric:normal;font-variant-alternates:normal;font-feature-settings:normal;text-indent:0;text-align:start;text-decoration-line:none;text-decoration-style:solid;text-decoration-color:#000;text-transform:none;text-orientation:mixed;white-space:normal;shape-padding:0;isolation:auto;mix-blend-mode:normal;solid-color:#000;solid-opacity:1"/></svg>
