<svg xmlns="http://www.w3.org/2000/svg" fill="none" stroke="currentColor" stroke-linecap="round" stroke-linejoin="round" stroke-width="2" class="feather feather-codesandbox" viewBox="0 0 24 24"><path fill="#000" stroke="none" d="M12 1.002a3 3 0 00-1.496.4l-7 4a1 1 0 00-.004.002A3.002 3.002 0 002 7.998 1 1 0 002 8v8a1 1 0 000 .002 3.002 3.002 0 001.5 2.594 1 1 0 00.004.002l7 4c.926.533 2.07.532 2.996-.002l6.996-3.998a1 1 0 00.004-.002 3.002 3.002 0 001.5-2.594A1 1 0 0022 16V8a1 1 0 000-.002 3.002 3.002 0 00-1.5-2.594 1 1 0 00-.004-.002L13.5 1.404a3 3 0 00-1.5-.402zm-.5 2.135c.31-.18.69-.18 1 0a1 1 0 00.004.002L19.5 7.137c.31.179.499.505.5.863v7.998c0 .359-.19.686-.5.865l-6.996 3.998a1 1 0 00-.004.002c-.31.18-.69.18-1 0a1 1 0 00-.004-.002L4.5 16.863A.996.996 0 014 16V8a.996.996 0 01.5-.863l6.996-3.998a1 1 0 00.004-.002z" color="#000" font-family="sans-serif" font-weight="400" overflow="visible" style="line-height:normal;font-variant-ligatures:normal;font-variant-position:normal;font-variant-caps:normal;font-variant-numeric:normal;font-variant-alternates:normal;font-feature-settings:normal;text-indent:0;text-align:start;text-decoration-line:none;text-decoration-style:solid;text-decoration-color:#000;text-transform:none;text-orientation:mixed;white-space:normal;shape-padding:0;isolation:auto;mix-blend-mode:normal;solid-color:#000;solid-opacity:1"/><path fill="#000" stroke="none" d="M7.525 3.203A1 1 0 007 5.076l4.5 2.6a1 1 0 001 0l4.5-2.6a1 1 0 10-1-1.732l-4 2.31-4-2.31a1 1 0 00-.475-.14zM2.926 10.994a1 1 0 00-.426 1.871l4 2.313v4.611a1 1 0 102 0V14.6a1 1 0 00-.5-.865l-4.5-2.6a1 1 0 00-.574-.14zM21.045 10.994a1 1 0 00-.545.14l-4.5 2.6a1 1 0 00-.5.866v5.19a1 1 0 102 0v-4.612l4-2.313a1 1 0 00-.455-1.87z" color="#000" font-family="sans-serif" font-weight="400" overflow="visible" style="line-height:normal;font-variant-ligatures:normal;font-variant-position:normal;font-variant-caps:normal;font-variant-numeric:normal;font-variant-alternates:normal;font-feature-settings:normal;text-indent:0;text-align:start;text-decoration-line:none;text-decoration-style:solid;text-decoration-color:#000;text-transform:none;text-orientation:mixed;white-space:normal;shape-padding:0;isolation:auto;mix-blend-mode:normal;solid-color:#000;solid-opacity:1"/><path fill="#000" stroke="none" d="M3.297 5.953a1 1 0 00-.527 1.873l8.73 5.049a1 1 0 001 0l8.73-5.049a1 1 0 10-1.001-1.732L12 10.855 3.771 6.094a1 1 0 00-.474-.14z" color="#000" font-family="sans-serif" font-weight="400" overflow="visible" style="line-height:normal;font-variant-ligatures:normal;font-variant-position:normal;font-variant-caps:normal;font-variant-numeric:normal;font-variant-alternates:normal;font-feature-settings:normal;text-indent:0;text-align:start;text-decoration-line:none;text-decoration-style:solid;text-decoration-color:#000;text-transform:none;text-orientation:mixed;white-space:normal;shape-padding:0;isolation:auto;mix-blend-mode:normal;solid-color:#000;solid-opacity:1"/><path fill="#000" stroke="none" d="M11.984 10.986A1 1 0 0011 12v10.08a1 1 0 102 0V12a1 1 0 00-1.016-1.014z" color="#000" font-family="sans-serif" font-weight="400" overflow="visible" style="line-height:normal;font-variant-ligatures:normal;font-variant-position:normal;font-variant-caps:normal;font-variant-numeric:normal;font-variant-alternates:normal;font-feature-settings:normal;text-indent:0;text-align:start;text-decoration-line:none;text-decoration-style:solid;text-decoration-color:#000;text-transform:none;text-orientation:mixed;white-space:normal;shape-padding:0;isolation:auto;mix-blend-mode:normal;solid-color:#000;solid-opacity:1"/></svg>
