<svg xmlns="http://www.w3.org/2000/svg" fill="none" stroke="currentColor" stroke-linecap="round" stroke-linejoin="round" stroke-width="2" class="feather feather-copy" viewBox="0 0 24 24"><path fill="#000" stroke="none" d="M4 1C2.355 1 1 2.355 1 4v9c0 1.645 1.355 3 3 3h1a1 1 0 100-2H4c-.564 0-1-.436-1-1V4c0-.564.436-1 1-1h9c.564 0 1 .436 1 1v1a1 1 0 102 0V4c0-1.645-1.355-3-3-3H4zm7 7c-1.645 0-3 1.355-3 3v9c0 1.645 1.355 3 3 3h9c1.645 0 3-1.355 3-3v-9c0-1.645-1.355-3-3-3h-9zm0 2h9c.571 0 1 .429 1 1v9c0 .571-.429 1-1 1h-9c-.571 0-1-.429-1-1v-9c0-.571.429-1 1-1z" color="#000" font-family="sans-serif" font-weight="400" overflow="visible" style="line-height:normal;font-variant-ligatures:normal;font-variant-position:normal;font-variant-caps:normal;font-variant-numeric:normal;font-variant-alternates:normal;font-feature-settings:normal;text-indent:0;text-align:start;text-decoration-line:none;text-decoration-style:solid;text-decoration-color:#000;text-transform:none;text-orientation:mixed;white-space:normal;shape-padding:0;isolation:auto;mix-blend-mode:normal;solid-color:#000;solid-opacity:1"/></svg>
