<svg xmlns="http://www.w3.org/2000/svg" fill="none" stroke="currentColor" stroke-linecap="round" stroke-linejoin="round" stroke-width="2" class="feather feather-layout" viewBox="0 0 24 24"><path fill="#000" stroke="none" d="M5 2C3.355 2 2 3.355 2 5v3.832a1 1 0 000 .326V19c0 1.645 1.355 3 3 3h3.832a1 1 0 00.326 0H19c1.645 0 3-1.355 3-3V9.168a1 1 0 000-.326V5c0-1.645-1.355-3-3-3H5zm0 2h14c.571 0 1 .429 1 1v3H9.154a1 1 0 00-.17-.014A1 1 0 008.84 8H4V5c0-.571.429-1 1-1zm-1 6h4v10H5c-.571 0-1-.429-1-1v-9zm6 0h10v9c0 .571-.429 1-1 1h-9V10z" color="#000" font-family="sans-serif" font-weight="400" overflow="visible" style="line-height:normal;font-variant-ligatures:normal;font-variant-position:normal;font-variant-caps:normal;font-variant-numeric:normal;font-variant-alternates:normal;font-feature-settings:normal;text-indent:0;text-align:start;text-decoration-line:none;text-decoration-style:solid;text-decoration-color:#000;text-transform:none;text-orientation:mixed;white-space:normal;shape-padding:0;isolation:auto;mix-blend-mode:normal;solid-color:#000;solid-opacity:1"/></svg>
