<svg xmlns="http://www.w3.org/2000/svg" fill="none" stroke="currentColor" stroke-linecap="round" stroke-linejoin="round" stroke-width="2" viewBox="0 0 24 24"><path fill="#000" stroke="none" d="M5 3c-1.093 0-2 .907-2 2v2c0 1.093.907 2 2 2h14c1.093 0 2-.907 2-2V5c0-1.093-.907-2-2-2H5zm0 2h14v2H5V5zm0 6c-1.093 0-2 .907-2 2v6c0 1.093.907 2 2 2h6c1.093 0 2-.907 2-2v-6c0-1.093-.907-2-2-2H5zm12 0c-1.093 0-2 .907-2 2v6c0 1.093.907 2 2 2h2c1.093 0 2-.907 2-2v-6c0-1.093-.907-2-2-2h-2zM5 13h6v6H5v-6zm12 0h2v6h-2v-6z" color="#000" font-family="sans-serif" font-weight="400" overflow="visible" style="line-height:normal;font-variant-ligatures:normal;font-variant-position:normal;font-variant-caps:normal;font-variant-numeric:normal;font-variant-alternates:normal;font-feature-settings:normal;text-indent:0;text-align:start;text-decoration-line:none;text-decoration-style:solid;text-decoration-color:#000;text-transform:none;text-orientation:mixed;white-space:normal;shape-padding:0;isolation:auto;mix-blend-mode:normal;solid-color:#000;solid-opacity:1"/></svg>
